<svg width="920" height="220" viewBox="0 0 920 220" fill="none" xmlns="http://www.w3.org/2000/svg" role="img" aria-labelledby="title">
  <title id="title">Tomasoni</title>
  <rect width="920" height="220" fill="white"/>
  <g fill="#1268D8">
    <path d="M43 78H190L178 108H129V154H93V108H31L43 78Z"/>
    <path d="M195 78H330C364 78 381 91 381 116C381 142 360 154 321 154H185C151 154 134 141 134 116C134 91 154 78 195 78ZM206 108C184 108 173 111 173 117C173 123 182 126 201 126H317C335 126 344 123 344 117C344 111 336 108 321 108H206Z"/>
    <path d="M405 78H454L494 116L536 78H585V154H550V116L507 154H481L439 116V154H405V78Z"/>
    <path d="M642 78H777L765 108H653C641 108 635 111 635 116C635 123 642 126 656 126H733C765 126 781 135 781 152C781 170 762 179 724 179H603L615 149H728C740 149 746 147 746 142C746 137 740 134 728 134H650C617 134 600 124 600 105C600 87 614 78 642 78Z"/>
    <path d="M800 78H837V154H800V78Z"/>
    <path d="M858 78H895V154H858V78Z"/>
  </g>
  <g fill="#1268D8">
    <path d="M64 126H33V154H64V126Z"/>
    <path d="M80 78H106V105H80V78Z"/>
  </g>
</svg>
